<?xml version="1.0" encoding="UTF-8" standalone="no"?>
<!DOCTYPE svg PUBLIC "-//W3C//DTD SVG 1.1//EN"
 "http://www.w3.org/Graphics/SVG/1.1/DTD/svg11.dtd">
<!-- Generated by graphviz version 2.43.0 (0)
 -->
<!-- Title: file_analyzer.FileAnalyzerGenHook.run Pages: 1 -->
<svg width="615pt" height="83pt"
 viewBox="0.00 0.00 615.00 83.00" xmlns="http://www.w3.org/2000/svg" xmlns:xlink="http://www.w3.org/1999/xlink">
<g id="graph0" class="graph" transform="scale(1 1) rotate(0) translate(4 79)">
<title>file_analyzer.FileAnalyzerGenHook.run</title>
<polygon fill="white" stroke="transparent" points="-4,4 -4,-79 611,-79 611,4 -4,4"/>
<!-- Node1 -->
<g id="node1" class="node">
<title>Node1</title>
<g id="a_node1"><a xlink:title=" ">
<polygon fill="#bfbfbf" stroke="black" points="0,-22.5 0,-52.5 141,-52.5 141,-22.5 0,-22.5"/>
<text text-anchor="start" x="8" y="-40.5" font-family="Helvetica,sans-Serif" font-size="10.00">file_analyzer.FileAnalyzer</text>
<text text-anchor="middle" x="70.5" y="-29.5" font-family="Helvetica,sans-Serif" font-size="10.00">GenHook.run</text>
</a>
</g>
</g>
<!-- Node2 -->
<g id="node2" class="node">
<title>Node2</title>
<g id="a_node2"><a xlink:href="$classfile__analyzer_1_1FileAnalyzerGenHook.html#a18a6bae101fd740b7e8ff588c2338263" xlink:title=" ">
<polygon fill="white" stroke="black" points="215.5,-44.5 215.5,-74.5 356.5,-74.5 356.5,-44.5 215.5,-44.5"/>
<text text-anchor="start" x="223.5" y="-62.5" font-family="Helvetica,sans-Serif" font-size="10.00">file_analyzer.FileAnalyzer</text>
<text text-anchor="middle" x="286" y="-51.5" font-family="Helvetica,sans-Serif" font-size="10.00">GenHook.process_file</text>
</a>
</g>
</g>
<!-- Node1&#45;&gt;Node2 -->
<g id="edge1" class="edge">
<title>Node1&#45;&gt;Node2</title>
<path fill="none" stroke="midnightblue" d="M141.11,-44.67C161.61,-46.79 184.19,-49.11 205.27,-51.28"/>
<polygon fill="midnightblue" stroke="midnightblue" points="205.18,-54.79 215.48,-52.34 205.89,-47.83 205.18,-54.79"/>
</g>
<!-- Node3 -->
<g id="node3" class="node">
<title>Node3</title>
<g id="a_node3"><a xlink:href="$classgit__analyzer_1_1GitDocGenHook.html#a4524f438ea3fc33abebd667f0d2e28a0" xlink:title=" ">
<polygon fill="white" stroke="black" points="177,-6 177,-25 395,-25 395,-6 177,-6"/>
<text text-anchor="middle" x="286" y="-13" font-family="Helvetica,sans-Serif" font-size="10.00">git_analyzer.GitDocGenHook.process_file</text>
</a>
</g>
</g>
<!-- Node1&#45;&gt;Node3 -->
<g id="edge2" class="edge">
<title>Node1&#45;&gt;Node3</title>
<path fill="none" stroke="midnightblue" d="M141.11,-30.33C154.33,-28.96 168.42,-27.51 182.41,-26.07"/>
<polygon fill="midnightblue" stroke="midnightblue" points="182.98,-29.53 192.57,-25.02 182.26,-22.57 182.98,-29.53"/>
</g>
<!-- Node4 -->
<g id="node4" class="node">
<title>Node4</title>
<g id="a_node4"><a xlink:href="$classgit__analyzer_1_1GitDocGenHook.html#a13faab2b0ee4469567eee52a68bab858" xlink:title=" ">
<polygon fill="white" stroke="black" points="431,-0.5 431,-30.5 607,-30.5 607,-0.5 431,-0.5"/>
<text text-anchor="start" x="439" y="-18.5" font-family="Helvetica,sans-Serif" font-size="10.00">git_analyzer.GitDocGenHook.get</text>
<text text-anchor="middle" x="519" y="-7.5" font-family="Helvetica,sans-Serif" font-size="10.00">_modified_lines</text>
</a>
</g>
</g>
<!-- Node3&#45;&gt;Node4 -->
<g id="edge3" class="edge">
<title>Node3&#45;&gt;Node4</title>
<path fill="none" stroke="midnightblue" d="M395.06,-15.5C403.58,-15.5 412.14,-15.5 420.58,-15.5"/>
<polygon fill="midnightblue" stroke="midnightblue" points="420.79,-19 430.79,-15.5 420.79,-12 420.79,-19"/>
</g>
</g>
</svg>
