<?xml version="1.0" encoding="UTF-8" standalone="no"?>
<!DOCTYPE svg PUBLIC "-//W3C//DTD SVG 1.1//EN"
 "http://www.w3.org/Graphics/SVG/1.1/DTD/svg11.dtd">
<!-- Generated by graphviz version 2.43.0 (0)
 -->
<!-- Title: main.main Pages: 1 -->
<svg width="410pt" height="256pt"
 viewBox="0.00 0.00 410.00 256.00" xmlns="http://www.w3.org/2000/svg" xmlns:xlink="http://www.w3.org/1999/xlink">
<g id="graph0" class="graph" transform="scale(1 1) rotate(0) translate(4 252)">
<title>main.main</title>
<polygon fill="white" stroke="transparent" points="-4,4 -4,-252 406,-252 406,4 -4,4"/>
<!-- Node1 -->
<g id="node1" class="node">
<title>Node1</title>
<g id="a_node1"><a xlink:title=" ">
<polygon fill="#bfbfbf" stroke="black" points="0,-114.5 0,-133.5 69,-133.5 69,-114.5 0,-114.5"/>
<text text-anchor="middle" x="34.5" y="-121.5" font-family="Helvetica,sans-Serif" font-size="10.00">main.main</text>
</a>
</g>
</g>
<!-- Node2 -->
<g id="node2" class="node">
<title>Node2</title>
<g id="a_node2"><a xlink:href="$namespacemain.html#a5754b28669981f6ed6b3d5c62aef259f" xlink:title=" ">
<polygon fill="white" stroke="black" points="117,-228.5 117,-247.5 227,-247.5 227,-228.5 117,-228.5"/>
<text text-anchor="middle" x="172" y="-235.5" font-family="Helvetica,sans-Serif" font-size="10.00">main.commit_code</text>
</a>
</g>
</g>
<!-- Node1&#45;&gt;Node2 -->
<g id="edge1" class="edge">
<title>Node1&#45;&gt;Node2</title>
<path fill="none" stroke="midnightblue" d="M39.89,-133.72C49.11,-153 72.33,-196.18 105,-219 107.87,-221.01 110.96,-222.8 114.16,-224.41"/>
<polygon fill="midnightblue" stroke="midnightblue" points="112.89,-227.68 123.46,-228.46 115.69,-221.26 112.89,-227.68"/>
</g>
<!-- Node3 -->
<g id="node3" class="node">
<title>Node3</title>
<g id="a_node3"><a xlink:href="$namespaceutils.html#ad9e472f4893cc6ba4b57b97fd5d8d7c8" xlink:title=" ">
<polygon fill="white" stroke="black" points="115.5,-190.5 115.5,-209.5 228.5,-209.5 228.5,-190.5 115.5,-190.5"/>
<text text-anchor="middle" x="172" y="-197.5" font-family="Helvetica,sans-Serif" font-size="10.00">utils.find_git_parent</text>
</a>
</g>
</g>
<!-- Node1&#45;&gt;Node3 -->
<g id="edge2" class="edge">
<title>Node1&#45;&gt;Node3</title>
<path fill="none" stroke="midnightblue" d="M44.92,-133.91C57.49,-146.58 80.96,-168.37 105,-181 109.26,-183.24 113.82,-185.24 118.48,-187.03"/>
<polygon fill="midnightblue" stroke="midnightblue" points="117.52,-190.4 128.11,-190.41 119.83,-183.8 117.52,-190.4"/>
</g>
<!-- Node4 -->
<g id="node4" class="node">
<title>Node4</title>
<g id="a_node4"><a xlink:href="$namespacemain.html#a6568610bf9f969e7129f30417d1ec212" xlink:title=" ">
<polygon fill="white" stroke="black" points="117,-152.5 117,-171.5 227,-171.5 227,-152.5 117,-152.5"/>
<text text-anchor="middle" x="172" y="-159.5" font-family="Helvetica,sans-Serif" font-size="10.00">main.generate_doc</text>
</a>
</g>
</g>
<!-- Node1&#45;&gt;Node4 -->
<g id="edge3" class="edge">
<title>Node1&#45;&gt;Node4</title>
<path fill="none" stroke="midnightblue" d="M69.34,-133.49C86.88,-138.41 108.51,-144.48 127.3,-149.75"/>
<polygon fill="midnightblue" stroke="midnightblue" points="126.55,-153.17 137.12,-152.5 128.44,-146.43 126.55,-153.17"/>
</g>
<!-- Node5 -->
<g id="node5" class="node">
<title>Node5</title>
<g id="a_node5"><a xlink:href="$namespacemain.html#af6cd733a1e7a34da9a58510285b63bc7" xlink:title=" ">
<polygon fill="white" stroke="black" points="126,-114.5 126,-133.5 218,-133.5 218,-114.5 126,-114.5"/>
<text text-anchor="middle" x="172" y="-121.5" font-family="Helvetica,sans-Serif" font-size="10.00">main.get_token</text>
</a>
</g>
</g>
<!-- Node1&#45;&gt;Node5 -->
<g id="edge4" class="edge">
<title>Node1&#45;&gt;Node5</title>
<path fill="none" stroke="midnightblue" d="M69.34,-124C83.36,-124 99.99,-124 115.69,-124"/>
<polygon fill="midnightblue" stroke="midnightblue" points="115.84,-127.5 125.84,-124 115.84,-120.5 115.84,-127.5"/>
</g>
<!-- Node6 -->
<g id="node6" class="node">
<title>Node6</title>
<g id="a_node6"><a xlink:href="$namespacemain.html#a3e494c4723342a16da721b682c2ad95d" xlink:title=" ">
<polygon fill="white" stroke="black" points="111,-76.5 111,-95.5 233,-95.5 233,-76.5 111,-76.5"/>
<text text-anchor="middle" x="172" y="-83.5" font-family="Helvetica,sans-Serif" font-size="10.00">main.install_git_hook</text>
</a>
</g>
</g>
<!-- Node1&#45;&gt;Node6 -->
<g id="edge5" class="edge">
<title>Node1&#45;&gt;Node6</title>
<path fill="none" stroke="midnightblue" d="M69.34,-114.51C86.88,-109.59 108.51,-103.52 127.3,-98.25"/>
<polygon fill="midnightblue" stroke="midnightblue" points="128.44,-101.57 137.12,-95.5 126.55,-94.83 128.44,-101.57"/>
</g>
<!-- Node7 -->
<g id="node7" class="node">
<title>Node7</title>
<g id="a_node7"><a xlink:href="$namespacemain.html#a325d966924c7c2622fcc50c3626bc8ed" xlink:title=" ">
<polygon fill="white" stroke="black" points="138,-38.5 138,-57.5 206,-57.5 206,-38.5 138,-38.5"/>
<text text-anchor="middle" x="172" y="-45.5" font-family="Helvetica,sans-Serif" font-size="10.00">main.login</text>
</a>
</g>
</g>
<!-- Node1&#45;&gt;Node7 -->
<g id="edge6" class="edge">
<title>Node1&#45;&gt;Node7</title>
<path fill="none" stroke="midnightblue" d="M44.92,-114.09C57.49,-101.42 80.96,-79.63 105,-67 112.13,-63.26 120.08,-60.17 127.94,-57.65"/>
<polygon fill="midnightblue" stroke="midnightblue" points="129.16,-60.94 137.76,-54.75 127.18,-54.22 129.16,-60.94"/>
</g>
<!-- Node9 -->
<g id="node9" class="node">
<title>Node9</title>
<g id="a_node9"><a xlink:href="$namespacemain.html#a1dd4c4eb546efac3d25779ebb7e23d8c" xlink:title=" ">
<polygon fill="white" stroke="black" points="105,-0.5 105,-19.5 239,-19.5 239,-0.5 105,-0.5"/>
<text text-anchor="middle" x="172" y="-7.5" font-family="Helvetica,sans-Serif" font-size="10.00">main.uninstall_git_hook</text>
</a>
</g>
</g>
<!-- Node1&#45;&gt;Node9 -->
<g id="edge8" class="edge">
<title>Node1&#45;&gt;Node9</title>
<path fill="none" stroke="midnightblue" d="M39.89,-114.28C49.11,-95 72.33,-51.82 105,-29 107.87,-26.99 110.96,-25.2 114.16,-23.59"/>
<polygon fill="midnightblue" stroke="midnightblue" points="115.69,-26.74 123.46,-19.54 112.89,-20.32 115.69,-26.74"/>
</g>
<!-- Node8 -->
<g id="node8" class="node">
<title>Node8</title>
<g id="a_node8"><a xlink:href="$namespacemain.html#a8cf2a5becaa2433301d49eed685f49a6" xlink:title=" ">
<polygon fill="white" stroke="black" points="275,-38.5 275,-57.5 402,-57.5 402,-38.5 275,-38.5"/>
<text text-anchor="middle" x="338.5" y="-45.5" font-family="Helvetica,sans-Serif" font-size="10.00">main.save_credentials</text>
</a>
</g>
</g>
<!-- Node7&#45;&gt;Node8 -->
<g id="edge7" class="edge">
<title>Node7&#45;&gt;Node8</title>
<path fill="none" stroke="midnightblue" d="M206.29,-48C223.15,-48 244.34,-48 264.73,-48"/>
<polygon fill="midnightblue" stroke="midnightblue" points="264.98,-51.5 274.98,-48 264.98,-44.5 264.98,-51.5"/>
</g>
</g>
</svg>
