<?xml version="1.0" encoding="UTF-8" standalone="no"?>
<!DOCTYPE svg PUBLIC "-//W3C//DTD SVG 1.1//EN"
 "http://www.w3.org/Graphics/SVG/1.1/DTD/svg11.dtd">
<!-- Generated by graphviz version 2.43.0 (0)
 -->
<!-- Title: git_analyzer.GitDocGenHook.run Pages: 1 -->
<svg width="650pt" height="132pt"
 viewBox="0.00 0.00 650.00 132.00" xmlns="http://www.w3.org/2000/svg" xmlns:xlink="http://www.w3.org/1999/xlink">
<g id="graph0" class="graph" transform="scale(1 1) rotate(0) translate(4 128)">
<title>git_analyzer.GitDocGenHook.run</title>
<polygon fill="white" stroke="transparent" points="-4,4 -4,-128 646,-128 646,4 -4,4"/>
<!-- Node1 -->
<g id="node1" class="node">
<title>Node1</title>
<g id="a_node1"><a xlink:title=" ">
<polygon fill="#bfbfbf" stroke="black" points="0,-50 0,-69 176,-69 176,-50 0,-50"/>
<text text-anchor="middle" x="88" y="-57" font-family="Helvetica,sans-Serif" font-size="10.00">git_analyzer.GitDocGenHook.run</text>
</a>
</g>
</g>
<!-- Node2 -->
<g id="node2" class="node">
<title>Node2</title>
<g id="a_node2"><a xlink:href="classgit__analyzer_1_1GitDocGenHook.html#ae35cebb17e35aed63db274f08cf29580" target="_top" xlink:title=" ">
<polygon fill="white" stroke="black" points="233,-93.5 233,-123.5 409,-123.5 409,-93.5 233,-93.5"/>
<text text-anchor="start" x="241" y="-111.5" font-family="Helvetica,sans-Serif" font-size="10.00">git_analyzer.GitDocGenHook.get</text>
<text text-anchor="middle" x="321" y="-100.5" font-family="Helvetica,sans-Serif" font-size="10.00">_modified_files_in_last_commit</text>
</a>
</g>
</g>
<!-- Node1&#45;&gt;Node2 -->
<g id="edge1" class="edge">
<title>Node1&#45;&gt;Node2</title>
<path fill="none" stroke="midnightblue" d="M133.81,-69.01C163.68,-75.34 203.78,-83.85 239.12,-91.34"/>
<polygon fill="midnightblue" stroke="midnightblue" points="238.44,-94.78 248.95,-93.43 239.89,-87.93 238.44,-94.78"/>
</g>
<!-- Node3 -->
<g id="node3" class="node">
<title>Node3</title>
<g id="a_node3"><a xlink:href="classfile__analyzer_1_1FileAnalyzerGenHook.html#a18a6bae101fd740b7e8ff588c2338263" target="_top" xlink:title=" ">
<polygon fill="white" stroke="black" points="250.5,-44.5 250.5,-74.5 391.5,-74.5 391.5,-44.5 250.5,-44.5"/>
<text text-anchor="start" x="258.5" y="-62.5" font-family="Helvetica,sans-Serif" font-size="10.00">file_analyzer.FileAnalyzer</text>
<text text-anchor="middle" x="321" y="-51.5" font-family="Helvetica,sans-Serif" font-size="10.00">GenHook.process_file</text>
</a>
</g>
</g>
<!-- Node1&#45;&gt;Node3 -->
<g id="edge2" class="edge">
<title>Node1&#45;&gt;Node3</title>
<path fill="none" stroke="midnightblue" d="M176,-59.5C197.1,-59.5 219.56,-59.5 240.31,-59.5"/>
<polygon fill="midnightblue" stroke="midnightblue" points="240.34,-63 250.34,-59.5 240.34,-56 240.34,-63"/>
</g>
<!-- Node4 -->
<g id="node4" class="node">
<title>Node4</title>
<g id="a_node4"><a xlink:href="classgit__analyzer_1_1GitDocGenHook.html#a4524f438ea3fc33abebd667f0d2e28a0" target="_top" xlink:title=" ">
<polygon fill="white" stroke="black" points="212,-6 212,-25 430,-25 430,-6 212,-6"/>
<text text-anchor="middle" x="321" y="-13" font-family="Helvetica,sans-Serif" font-size="10.00">git_analyzer.GitDocGenHook.process_file</text>
</a>
</g>
</g>
<!-- Node1&#45;&gt;Node4 -->
<g id="edge3" class="edge">
<title>Node1&#45;&gt;Node4</title>
<path fill="none" stroke="midnightblue" d="M137.17,-49.99C159.86,-45.54 187.31,-40.19 212,-35.5 226.84,-32.68 242.84,-29.69 257.86,-26.9"/>
<polygon fill="midnightblue" stroke="midnightblue" points="258.87,-30.27 268.07,-25.01 257.6,-23.39 258.87,-30.27"/>
</g>
<!-- Node5 -->
<g id="node5" class="node">
<title>Node5</title>
<g id="a_node5"><a xlink:href="classgit__analyzer_1_1GitDocGenHook.html#a13faab2b0ee4469567eee52a68bab858" target="_top" xlink:title=" ">
<polygon fill="white" stroke="black" points="466,-0.5 466,-30.5 642,-30.5 642,-0.5 466,-0.5"/>
<text text-anchor="start" x="474" y="-18.5" font-family="Helvetica,sans-Serif" font-size="10.00">git_analyzer.GitDocGenHook.get</text>
<text text-anchor="middle" x="554" y="-7.5" font-family="Helvetica,sans-Serif" font-size="10.00">_modified_lines</text>
</a>
</g>
</g>
<!-- Node4&#45;&gt;Node5 -->
<g id="edge4" class="edge">
<title>Node4&#45;&gt;Node5</title>
<path fill="none" stroke="midnightblue" d="M430.06,-15.5C438.58,-15.5 447.14,-15.5 455.58,-15.5"/>
<polygon fill="midnightblue" stroke="midnightblue" points="455.79,-19 465.79,-15.5 455.79,-12 455.79,-19"/>
</g>
</g>
</svg>
