<?xml version="1.0" encoding="UTF-8" standalone="no"?>
<!DOCTYPE svg PUBLIC "-//W3C//DTD SVG 1.1//EN"
 "http://www.w3.org/Graphics/SVG/1.1/DTD/svg11.dtd">
<!-- Generated by graphviz version 2.43.0 (0)
 -->
<!-- Title: git_analyzer.GitDocGenHook.get_modified_lines Pages: 1 -->
<svg width="650pt" height="78pt"
 viewBox="0.00 0.00 650.00 77.50" xmlns="http://www.w3.org/2000/svg" xmlns:xlink="http://www.w3.org/1999/xlink">
<g id="graph0" class="graph" transform="scale(1 1) rotate(0) translate(4 73.5)">
<title>git_analyzer.GitDocGenHook.get_modified_lines</title>
<polygon fill="white" stroke="transparent" points="-4,4 -4,-73.5 646,-73.5 646,4 -4,4"/>
<!-- Node1 -->
<g id="node1" class="node">
<title>Node1</title>
<g id="a_node1"><a xlink:title=" ">
<polygon fill="#bfbfbf" stroke="black" points="466,-17 466,-47 642,-47 642,-17 466,-17"/>
<text text-anchor="start" x="474" y="-35" font-family="Helvetica,sans-Serif" font-size="10.00">git_analyzer.GitDocGenHook.get</text>
<text text-anchor="middle" x="554" y="-24" font-family="Helvetica,sans-Serif" font-size="10.00">_modified_lines</text>
</a>
</g>
</g>
<!-- Node2 -->
<g id="node2" class="node">
<title>Node2</title>
<g id="a_node2"><a xlink:href="classgit__analyzer_1_1GitDocGenHook.html#a4524f438ea3fc33abebd667f0d2e28a0" target="_top" xlink:title=" ">
<polygon fill="white" stroke="black" points="212,-22.5 212,-41.5 430,-41.5 430,-22.5 212,-22.5"/>
<text text-anchor="middle" x="321" y="-29.5" font-family="Helvetica,sans-Serif" font-size="10.00">git_analyzer.GitDocGenHook.process_file</text>
</a>
</g>
</g>
<!-- Node1&#45;&gt;Node2 -->
<g id="edge1" class="edge">
<title>Node1&#45;&gt;Node2</title>
<path fill="none" stroke="midnightblue" d="M455.81,-32C447.4,-32 438.86,-32 430.36,-32"/>
<polygon fill="midnightblue" stroke="midnightblue" points="456,-35.5 466,-32 456,-28.5 456,-35.5"/>
</g>
<!-- Node3 -->
<g id="node3" class="node">
<title>Node3</title>
<g id="a_node3"><a xlink:href="classfile__analyzer_1_1FileAnalyzerGenHook.html#a5e7fdb6cbd90f4b742aa8940189308a6" target="_top" xlink:title=" ">
<polygon fill="white" stroke="black" points="17.5,-39 17.5,-69 158.5,-69 158.5,-39 17.5,-39"/>
<text text-anchor="start" x="25.5" y="-57" font-family="Helvetica,sans-Serif" font-size="10.00">file_analyzer.FileAnalyzer</text>
<text text-anchor="middle" x="88" y="-46" font-family="Helvetica,sans-Serif" font-size="10.00">GenHook.run</text>
</a>
</g>
</g>
<!-- Node2&#45;&gt;Node3 -->
<g id="edge2" class="edge">
<title>Node2&#45;&gt;Node3</title>
<path fill="none" stroke="midnightblue" d="M209.78,-42.5C192.33,-44.16 174.71,-45.84 158.54,-47.38"/>
<polygon fill="midnightblue" stroke="midnightblue" points="210.4,-45.95 220.02,-41.52 209.74,-38.99 210.4,-45.95"/>
</g>
<!-- Node4 -->
<g id="node4" class="node">
<title>Node4</title>
<g id="a_node4"><a xlink:href="classgit__analyzer_1_1GitDocGenHook.html#ad596fef66f3edbf433f959620346ca26" target="_top" xlink:title=" ">
<polygon fill="white" stroke="black" points="0,-0.5 0,-19.5 176,-19.5 176,-0.5 0,-0.5"/>
<text text-anchor="middle" x="88" y="-7.5" font-family="Helvetica,sans-Serif" font-size="10.00">git_analyzer.GitDocGenHook.run</text>
</a>
</g>
</g>
<!-- Node2&#45;&gt;Node4 -->
<g id="edge3" class="edge">
<title>Node2&#45;&gt;Node4</title>
<path fill="none" stroke="midnightblue" d="M210.04,-21.53C198.64,-20.44 187.17,-19.35 176.07,-18.29"/>
<polygon fill="midnightblue" stroke="midnightblue" points="209.74,-25.01 220.02,-22.48 210.4,-18.05 209.74,-25.01"/>
</g>
</g>
</svg>
