<?xml version="1.0" encoding="UTF-8" standalone="no"?>
<!DOCTYPE svg PUBLIC "-//W3C//DTD SVG 1.1//EN"
 "http://www.w3.org/Graphics/SVG/1.1/DTD/svg11.dtd">
<!-- Generated by graphviz version 2.43.0 (0)
 -->
<!-- Title: file_analyzer.FileAnalyzerGenHook.process_file Pages: 1 -->
<svg width="361pt" height="78pt"
 viewBox="0.00 0.00 361.00 77.50" xmlns="http://www.w3.org/2000/svg" xmlns:xlink="http://www.w3.org/1999/xlink">
<g id="graph0" class="graph" transform="scale(1 1) rotate(0) translate(4 73.5)">
<title>file_analyzer.FileAnalyzerGenHook.process_file</title>
<polygon fill="white" stroke="transparent" points="-4,4 -4,-73.5 357,-73.5 357,4 -4,4"/>
<!-- Node1 -->
<g id="node1" class="node">
<title>Node1</title>
<g id="a_node1"><a xlink:title=" ">
<polygon fill="#bfbfbf" stroke="black" points="212,-17 212,-47 353,-47 353,-17 212,-17"/>
<text text-anchor="start" x="220" y="-35" font-family="Helvetica,sans-Serif" font-size="10.00">file_analyzer.FileAnalyzer</text>
<text text-anchor="middle" x="282.5" y="-24" font-family="Helvetica,sans-Serif" font-size="10.00">GenHook.process_file</text>
</a>
</g>
</g>
<!-- Node2 -->
<g id="node2" class="node">
<title>Node2</title>
<g id="a_node2"><a xlink:href="$classfile__analyzer_1_1FileAnalyzerGenHook.html#a5e7fdb6cbd90f4b742aa8940189308a6" xlink:title=" ">
<polygon fill="white" stroke="black" points="17.5,-39 17.5,-69 158.5,-69 158.5,-39 17.5,-39"/>
<text text-anchor="start" x="25.5" y="-57" font-family="Helvetica,sans-Serif" font-size="10.00">file_analyzer.FileAnalyzer</text>
<text text-anchor="middle" x="88" y="-46" font-family="Helvetica,sans-Serif" font-size="10.00">GenHook.run</text>
</a>
</g>
</g>
<!-- Node1&#45;&gt;Node2 -->
<g id="edge1" class="edge">
<title>Node1&#45;&gt;Node2</title>
<path fill="none" stroke="midnightblue" d="M201.46,-41.15C187.2,-42.78 172.46,-44.46 158.53,-46.05"/>
<polygon fill="midnightblue" stroke="midnightblue" points="202.19,-44.59 211.73,-39.97 201.4,-37.63 202.19,-44.59"/>
</g>
<!-- Node3 -->
<g id="node3" class="node">
<title>Node3</title>
<g id="a_node3"><a xlink:href="$classgit__analyzer_1_1GitDocGenHook.html#ad596fef66f3edbf433f959620346ca26" xlink:title=" ">
<polygon fill="white" stroke="black" points="0,-0.5 0,-19.5 176,-19.5 176,-0.5 0,-0.5"/>
<text text-anchor="middle" x="88" y="-7.5" font-family="Helvetica,sans-Serif" font-size="10.00">git_analyzer.GitDocGenHook.run</text>
</a>
</g>
</g>
<!-- Node1&#45;&gt;Node3 -->
<g id="edge2" class="edge">
<title>Node1&#45;&gt;Node3</title>
<path fill="none" stroke="midnightblue" d="M201.71,-22.88C192,-21.77 182.05,-20.63 172.29,-19.52"/>
<polygon fill="midnightblue" stroke="midnightblue" points="201.4,-26.37 211.73,-24.03 202.19,-19.41 201.4,-26.37"/>
</g>
</g>
</svg>
